<?xml version="1.0" encoding="UTF-8" ?>
<!DOCTYPE svg PUBLIC "-//W3C//DTD SVG 1.1//EN" "http://www.w3.org/Graphics/SVG/1.1/DTD/svg11.dtd">
<svg width="218pt" height="170pt" viewBox="0 0 218 170" version="1.1" xmlns="http://www.w3.org/2000/svg">
<g id="#020000ff">
<path fill="#020000" opacity="1.00" d=" M 25.03 0.00 L 25.47 0.00 C 30.88 5.98 36.66 11.71 41.65 18.02 C 42.15 24.68 41.65 31.37 41.87 38.04 C 38.78 34.79 35.69 31.54 32.72 28.18 C 32.68 26.05 32.64 23.92 32.61 21.79 C 30.18 19.18 27.73 16.60 25.24 14.05 C 22.40 17.61 19.49 21.12 16.77 24.77 C 17.89 28.67 17.84 33.19 20.65 36.39 C 27.83 44.95 34.90 53.62 41.97 62.28 C 42.97 63.64 44.34 65.02 44.25 66.84 C 44.46 78.72 44.08 90.61 44.43 102.48 C 39.17 108.80 33.31 114.61 28.14 120.99 C 25.35 126.68 24.14 133.02 21.90 138.94 C 20.05 132.18 19.28 125.15 17.17 118.47 C 13.19 111.10 7.69 104.66 2.86 97.83 C 4.28 95.80 6.16 93.75 5.81 91.07 C 5.71 84.69 6.05 78.28 5.62 71.91 C 4.28 65.11 1.16 58.79 0.01 51.93 C 5.15 57.64 10.29 63.36 15.48 69.03 C 15.30 78.97 14.00 88.94 14.50 98.87 C 16.89 103.22 20.24 106.96 22.88 111.15 C 26.68 107.31 30.57 103.57 34.46 99.82 C 34.38 89.49 34.41 79.16 34.24 68.83 C 34.35 67.28 33.16 66.15 32.33 64.99 C 25.99 57.52 19.84 49.89 13.50 42.43 C 12.16 40.81 10.73 39.13 10.32 37.01 C 9.08 31.84 7.99 26.63 7.02 21.40 C 13.05 14.29 19.01 7.12 25.03 0.00 Z" />
<path fill="#020000" opacity="1.00" d=" M 196.88 0.01 C 202.22 6.23 207.31 12.67 212.63 18.91 C 213.47 20.15 214.97 21.31 214.69 22.99 C 214.10 29.61 212.27 36.07 210.53 42.47 C 208.30 36.88 208.25 30.74 206.32 25.09 C 203.73 21.09 200.22 17.77 197.34 13.98 C 194.83 17.16 192.02 20.13 189.79 23.51 C 188.81 24.78 189.49 26.39 189.62 27.81 C 190.20 30.48 190.44 33.43 192.25 35.61 C 200.81 45.98 209.46 56.26 218.00 66.64 L 218.00 105.51 C 213.21 111.33 207.75 116.59 202.97 122.42 C 198.24 131.06 199.54 141.28 198.17 150.71 C 196.54 146.17 194.86 141.64 193.29 137.08 C 190.81 129.89 192.56 122.08 191.18 114.77 C 187.08 109.63 182.45 104.91 178.00 100.05 C 178.00 89.68 178.02 79.32 177.97 68.95 C 178.07 67.51 177.84 65.86 178.84 64.66 C 181.83 60.61 185.37 57.00 188.50 53.06 C 187.94 68.22 187.72 83.41 186.78 98.55 C 190.83 102.91 195.02 107.14 199.07 111.50 C 202.31 108.42 205.53 105.33 208.70 102.18 C 208.60 92.08 208.72 81.98 208.68 71.88 C 208.93 69.82 207.35 68.34 206.20 66.87 C 199.31 58.80 192.61 50.57 185.74 42.49 C 184.41 40.86 182.88 39.23 182.47 37.09 C 181.26 32.00 180.46 26.83 179.24 21.74 C 184.75 14.21 190.69 6.99 196.88 0.01 Z" />
<path fill="#020000" opacity="1.00" d=" M 44.20 7.14 C 49.02 7.09 53.84 7.05 58.67 7.05 C 58.64 27.13 58.64 47.21 58.62 67.28 C 63.25 67.27 67.87 67.23 72.49 67.34 C 74.86 62.61 76.74 57.68 78.57 52.73 C 78.80 57.50 78.75 62.27 78.73 67.04 C 79.04 70.82 75.57 73.30 73.93 76.35 C 64.31 76.36 54.70 76.47 45.08 76.55 C 46.36 75.41 47.64 74.27 48.92 73.13 C 48.91 52.71 48.66 32.28 48.82 11.86 C 47.28 10.28 45.74 8.71 44.20 7.14 Z" />
<path fill="#020000" opacity="1.00" d=" M 73.07 7.00 C 78.55 7.30 83.66 9.43 88.98 10.50 C 94.44 10.85 99.94 10.78 105.40 10.36 C 107.31 12.50 109.45 14.48 111.01 16.90 C 111.54 21.78 110.89 26.72 110.76 31.62 C 108.22 27.51 105.48 23.54 102.82 19.51 C 98.83 19.38 94.84 19.40 90.86 19.45 C 90.87 24.78 90.87 30.11 90.86 35.44 C 96.33 34.89 102.53 36.99 107.27 33.39 C 105.06 36.90 103.12 40.56 101.09 44.17 C 97.68 44.15 94.26 44.15 90.84 44.23 C 90.89 51.95 90.86 59.67 90.87 67.39 C 95.20 67.43 99.54 67.43 103.88 67.36 C 106.37 62.38 108.93 57.43 111.57 52.53 C 111.55 57.64 111.84 62.78 111.49 67.89 C 110.17 70.96 108.10 73.64 106.45 76.54 C 96.93 76.50 87.41 76.59 77.89 76.68 C 79.17 75.56 80.45 74.45 81.72 73.33 C 81.35 53.49 81.55 33.62 81.29 13.78 C 79.67 10.62 75.90 9.04 73.07 7.00 Z" />
<path fill="#020000" opacity="1.00" d=" M 103.54 6.98 C 108.71 6.57 113.33 8.93 118.10 10.41 C 124.42 10.67 130.80 10.64 137.13 10.16 C 139.34 12.43 142.27 14.22 143.83 17.00 C 144.11 21.38 143.81 25.78 143.86 30.17 C 141.03 26.46 138.04 22.90 135.04 19.34 C 131.29 19.31 127.54 19.32 123.80 19.34 C 123.81 24.65 123.79 29.96 123.77 35.28 C 129.86 34.65 136.86 36.92 141.95 32.48 C 139.11 36.14 136.65 40.10 133.56 43.55 C 130.38 44.22 127.06 43.72 123.83 43.83 C 123.81 51.66 123.81 59.48 123.79 67.30 C 127.85 67.26 131.90 67.24 135.96 67.28 C 138.61 62.52 141.41 57.84 143.88 52.98 C 143.93 57.99 144.16 63.01 143.81 68.01 C 142.45 71.11 140.08 73.63 138.16 76.39 C 129.01 76.34 119.87 76.46 110.73 76.53 C 112.00 75.44 113.27 74.36 114.54 73.27 C 114.52 55.51 114.29 37.75 114.38 19.99 C 114.32 18.37 114.54 16.69 114.07 15.11 C 111.37 11.49 107.29 9.34 103.54 6.98 Z" />
<path fill="#020000" opacity="1.00" d=" M 138.90 7.05 C 141.94 7.22 145.26 6.44 148.09 7.91 C 150.34 8.89 152.40 10.65 154.99 10.53 C 160.40 10.57 165.82 10.66 171.23 10.41 C 173.45 13.23 175.65 16.08 177.86 18.91 C 177.72 26.71 178.02 34.51 177.75 42.30 C 175.37 46.34 172.11 49.78 169.24 53.47 C 165.00 53.42 160.77 53.43 156.53 53.43 C 156.65 61.10 156.55 68.77 156.59 76.44 C 152.38 76.42 148.16 76.44 143.95 76.48 C 145.06 75.38 146.19 74.28 147.31 73.18 C 147.15 54.14 147.15 35.10 147.13 16.06 C 147.76 11.18 141.91 9.60 138.90 7.05 M 156.45 19.33 C 156.65 27.77 156.55 36.21 156.55 44.65 C 159.35 44.64 162.15 44.63 164.95 44.61 C 166.39 42.69 167.85 40.80 169.31 38.90 C 169.26 33.09 169.20 27.28 169.43 21.48 C 166.31 17.55 160.75 19.98 156.45 19.33 Z" />
<path fill="#020000" opacity="1.00" d=" M 108.95 80.21 C 113.11 79.84 117.12 80.83 120.99 82.25 C 126.51 82.65 132.06 82.14 137.59 82.29 C 139.59 84.90 142.22 87.12 143.70 90.07 C 144.00 94.32 143.73 98.59 143.67 102.85 C 141.11 98.98 138.42 95.20 135.75 91.41 C 131.95 91.31 128.14 91.32 124.34 91.33 C 124.38 96.78 124.25 102.23 124.24 107.68 C 129.81 107.18 135.78 108.82 140.85 105.71 C 138.84 109.24 136.93 112.82 135.01 116.40 C 131.43 116.42 127.85 116.42 124.27 116.41 C 124.27 124.34 124.24 132.27 124.26 140.20 C 128.28 140.13 132.31 140.12 136.34 140.19 C 138.99 136.23 141.36 132.08 143.75 127.96 C 143.79 131.62 143.82 135.29 143.81 138.95 C 144.24 142.91 141.58 146.28 139.15 149.08 C 129.09 149.63 118.99 148.75 108.97 150.08 C 110.80 148.66 112.65 147.25 114.49 145.84 C 114.42 125.25 114.66 104.65 114.39 84.07 C 113.09 82.35 110.70 81.50 108.95 80.21 Z" />
<path fill="#020000" opacity="1.00" d=" M 140.67 80.17 C 144.63 79.80 148.50 80.58 152.14 82.13 C 156.59 82.85 161.15 82.11 165.65 82.29 C 169.17 86.13 172.86 89.82 176.22 93.80 C 176.13 101.59 176.14 109.38 176.22 117.16 C 173.60 120.40 170.87 123.56 168.26 126.80 C 164.37 126.85 160.48 126.85 156.60 126.85 C 156.50 139.60 156.72 152.36 156.39 165.12 C 153.64 159.87 150.63 154.76 147.76 149.58 C 146.07 149.53 144.38 149.49 142.70 149.45 C 144.18 147.75 147.17 146.65 147.14 144.05 C 147.22 124.24 147.11 104.43 147.26 84.62 C 145.11 83.06 142.88 81.62 140.67 80.17 M 156.55 91.34 C 156.62 100.30 156.58 109.25 156.59 118.21 C 159.18 118.21 161.77 118.22 164.37 118.26 C 165.39 116.94 166.40 115.61 167.40 114.27 C 167.31 108.35 167.31 102.43 167.49 96.51 C 165.85 94.73 164.15 93.00 162.44 91.30 C 160.47 91.32 158.51 91.33 156.55 91.34 Z" />
<path fill="#020000" opacity="1.00" d=" M 45.12 80.65 C 53.06 81.43 61.00 82.73 69.01 82.29 C 72.70 85.90 76.34 89.55 79.98 93.20 C 80.03 104.81 79.91 116.41 79.96 128.02 C 74.29 134.73 68.53 141.36 62.82 148.03 C 60.24 151.01 57.86 154.29 54.47 156.43 C 46.46 161.55 37.84 165.61 29.42 170.00 L 28.98 170.00 C 36.60 163.64 43.00 156.05 49.72 148.80 C 49.60 129.53 49.66 110.25 49.62 90.98 C 49.87 86.98 46.97 83.88 45.12 80.65 M 59.17 91.30 C 59.03 107.27 59.61 123.26 58.79 139.21 C 63.13 135.37 66.61 130.71 70.58 126.51 C 70.71 116.61 70.53 106.72 70.82 96.83 C 69.38 95.39 67.97 93.92 66.47 92.54 C 64.66 90.45 61.57 91.60 59.17 91.30 Z" />
<path fill="#020000" opacity="1.00" d=" M 76.77 80.26 C 81.88 80.78 86.79 82.77 91.97 82.59 C 96.74 82.49 101.50 82.46 106.27 82.38 C 108.13 84.35 109.96 86.36 111.79 88.36 C 111.85 93.35 111.81 98.35 111.76 103.35 C 108.90 99.40 106.09 95.41 103.16 91.52 C 99.25 91.45 95.34 91.46 91.43 91.46 C 91.46 96.91 91.43 102.36 91.41 107.81 C 97.18 107.31 103.47 109.07 108.65 105.68 C 106.44 109.24 104.46 112.92 102.41 116.57 C 98.76 116.57 95.11 116.57 91.46 116.56 C 91.43 124.46 91.44 132.37 91.43 140.27 C 95.93 140.26 100.43 140.26 104.94 140.27 C 107.25 136.18 109.55 132.07 111.79 127.93 C 111.81 132.60 112.06 137.29 111.75 141.95 C 110.71 144.64 108.90 146.97 107.42 149.43 C 96.71 149.52 85.94 148.87 75.33 150.66 C 77.45 148.98 79.60 147.32 81.77 145.69 C 81.86 125.55 81.75 105.40 81.73 85.26 C 80.05 83.62 78.39 81.96 76.77 80.26 Z" />
</g>
</svg>
